<?xml version="1.0" ?><svg style="enable-background:new 0 0 100 100;" version="1.1" viewBox="0 0 100 100" xml:space="preserve" xmlns="http://www.w3.org/2000/svg" xmlns:xlink="http://www.w3.org/1999/xlink"><style type="text/css">
	.st0{fill:#FFFFFF;}
	.st1{fill:none;stroke:#000000;stroke-width:3;stroke-linecap:round;stroke-linejoin:round;stroke-miterlimit:10;}
	
		.st2{fill-rule:evenodd;clip-rule:evenodd;fill:none;stroke:#000000;stroke-width:3;stroke-linecap:round;stroke-linejoin:round;stroke-miterlimit:10;}
	.st3{fill-rule:evenodd;clip-rule:evenodd;}
	
		.st4{fill-rule:evenodd;clip-rule:evenodd;fill:none;stroke:#040404;stroke-width:3;stroke-linecap:round;stroke-linejoin:round;stroke-miterlimit:10;}
	.st5{fill-rule:evenodd;clip-rule:evenodd;fill:#040404;}
	.st6{fill:none;}
	.st7{fill:none;stroke:#000000;stroke-width:3;stroke-miterlimit:10;}
	.st8{fill:none;stroke:#FFFFFF;stroke-miterlimit:10;}
	.st9{fill:#040404;}
</style><g id="Layer_1"/><g id="Layer_2"><path d="M95.515,26.989c-1.093-4.113-4.312-7.353-8.399-8.452C79.707,16.538,50,16.538,50,16.538s-29.707,0-37.115,1.998   c-4.088,1.099-7.307,4.339-8.399,8.452C2.5,34.445,2.5,50,2.5,50s0,15.556,1.985,23.012c1.092,4.113,4.311,7.352,8.399,8.452   C20.293,83.462,50,83.462,50,83.462s29.708,0,37.116-1.998c4.088-1.1,7.306-4.339,8.399-8.452C97.5,65.555,97.5,50,97.5,50   S97.5,34.445,95.515,26.989z M40.284,64.123V35.877l24.83,14.124L40.284,64.123z"/></g></svg>